<mxfile modified="2021-04-01T13:02:09.576Z" host="app.diagrams.net" agent="5.0 (Windows NT 10.0; Win64; x64) AppleWebKit/537.36 (KHTML, like Gecko) Chrome/89.0.4389.90 Safari/537.36" etag="_YPMoki6_9CLad_LYYgB" version="14.5.4" type="github">
  <diagram id="WI9T0HZ2pTsCkuznbFz-" name="Page-1">
    <mxGraphModel dx="1203" dy="1074" grid="1" gridSize="10" guides="1" tooltips="1" connect="1" arrows="1" fold="1" page="1" pageScale="1" pageWidth="1169" pageHeight="827" math="0" shadow="0">
      <root>
        <mxCell id="0" />
        <mxCell id="1" parent="0" />
        <mxCell id="fYd4LuV5suVmh2HfFidL-1" value="Compute Cluster" style="pointerEvents=1;shadow=0;dashed=0;html=1;strokeColor=none;fillColor=#4495D1;labelPosition=center;verticalLabelPosition=bottom;verticalAlign=top;align=center;outlineConnect=0;shape=mxgraph.veeam.cluster;" vertex="1" parent="1">
          <mxGeometry x="50" y="149.99999999999994" width="146.68" height="70.2" as="geometry" />
        </mxCell>
        <mxCell id="fYd4LuV5suVmh2HfFidL-9" style="edgeStyle=orthogonalEdgeStyle;rounded=0;orthogonalLoop=1;jettySize=auto;html=1;exitX=0;exitY=0.5;exitDx=0;exitDy=0;" edge="1" parent="1" source="fYd4LuV5suVmh2HfFidL-4" target="fYd4LuV5suVmh2HfFidL-1">
          <mxGeometry relative="1" as="geometry" />
        </mxCell>
        <mxCell id="fYd4LuV5suVmh2HfFidL-20" style="edgeStyle=orthogonalEdgeStyle;rounded=0;orthogonalLoop=1;jettySize=auto;html=1;entryX=0.5;entryY=0;entryDx=0;entryDy=0;" edge="1" parent="1" source="fYd4LuV5suVmh2HfFidL-4" target="fYd4LuV5suVmh2HfFidL-19">
          <mxGeometry relative="1" as="geometry" />
        </mxCell>
        <mxCell id="fYd4LuV5suVmh2HfFidL-4" value="Azure ML Workspace" style="shape=image;verticalLabelPosition=bottom;labelBackgroundColor=#ffffff;verticalAlign=top;aspect=fixed;imageAspect=0;image=data:image/svg+xml,PHN2ZyB4bWxuczpkYz0iaHR0cDovL3B1cmwub3JnL2RjL2VsZW1lbnRzLzEuMS8iIHhtbG5zOmNjPSJodHRwOi8vY3JlYXRpdmVjb21tb25zLm9yZy9ucyMiIHhtbG5zOnJkZj0iaHR0cDovL3d3dy53My5vcmcvMTk5OS8wMi8yMi1yZGYtc3ludGF4LW5zIyIgeG1sbnM6c3ZnPSJodHRwOi8vd3d3LnczLm9yZy8yMDAwL3N2ZyIgeG1sbnM9Imh0dHA6Ly93d3cudzMub3JnLzIwMDAvc3ZnIiB4bWxuczpzb2RpcG9kaT0iaHR0cDovL3NvZGlwb2RpLnNvdXJjZWZvcmdlLm5ldC9EVEQvc29kaXBvZGktMC5kdGQiIHhtbG5zOmlua3NjYXBlPSJodHRwOi8vd3d3Lmlua3NjYXBlLm9yZy9uYW1lc3BhY2VzL2lua3NjYXBlIiB2ZXJzaW9uPSIxLjEiIGlkPSJzdmc2MTAxMSIgaW5rc2NhcGU6dmVyc2lvbj0iMC45Mi4zICgyNDA1NTQ2LCAyMDE4LTAzLTExKSIgc29kaXBvZGk6ZG9jbmFtZT0iYXp1cmVfcG9ydGFsX3ZpcnR1YWxfbWFjaGluZXMuc3ZnIiB4PSIwcHgiIHk9IjBweCIgdmlld0JveD0iMCAwIDU3LjY0IDUzLjIwMDAwMiIgeG1sOnNwYWNlPSJwcmVzZXJ2ZSIgd2lkdGg9IjU3LjYzOTk5OSIgaGVpZ2h0PSI1My4yMDAwMDEiPjxtZXRhZGF0YSBpZD0ibWV0YWRhdGExMDk5MCI+PHJkZjpSREY+PGNjOldvcmsgcmRmOmFib3V0PSIiPjxkYzpmb3JtYXQ+aW1hZ2Uvc3ZnK3htbDwvZGM6Zm9ybWF0PjxkYzp0eXBlIHJkZjpyZXNvdXJjZT0iaHR0cDovL3B1cmwub3JnL2RjL2RjbWl0eXBlL1N0aWxsSW1hZ2UiLz48ZGM6dGl0bGUvPjwvY2M6V29yaz48L3JkZjpSREY+PC9tZXRhZGF0YT48ZGVmcyBpZD0iZGVmczEwOTg4Ii8+JiN4YTs8ZmlsdGVyIGlkPSJmaWx0ZXJfMiI+JiN4YTsJPGZlR2F1c3NpYW5CbHVyIGlkPSJmZUdhdXNzaWFuQmx1cjYwOTIwIiBzdGREZXZpYXRpb249IjIiLz4mI3hhOzwvZmlsdGVyPiYjeGE7PHNvZGlwb2RpOm5hbWVkdmlldyBib3JkZXJjb2xvcj0iIzY2NjY2NiIgYm9yZGVyb3BhY2l0eT0iMSIgZml0LW1hcmdpbi1ib3R0b209IjAiIGZpdC1tYXJnaW4tbGVmdD0iMCIgZml0LW1hcmdpbi1yaWdodD0iMCIgZml0LW1hcmdpbi10b3A9IjAiIGdyaWR0b2xlcmFuY2U9IjEwIiBndWlkZXRvbGVyYW5jZT0iMTAiIGlkPSJuYW1lZHZpZXc2MTAxMyIgaW5rc2NhcGU6Y3VycmVudC1sYXllcj0ic3ZnNjEwMTEiIGlua3NjYXBlOmN4PSItMzMuMTQzMzAzIiBpbmtzY2FwZTpjeT0iMjQuNjk2NTQ0IiBpbmtzY2FwZTpwYWdlb3BhY2l0eT0iMCIgaW5rc2NhcGU6cGFnZXNoYWRvdz0iMiIgaW5rc2NhcGU6d2luZG93LWhlaWdodD0iMTAxNyIgaW5rc2NhcGU6d2luZG93LW1heGltaXplZD0iMSIgaW5rc2NhcGU6d2luZG93LXdpZHRoPSIxOTIwIiBpbmtzY2FwZTp3aW5kb3cteD0iLTgiIGlua3NjYXBlOndpbmRvdy15PSItOCIgaW5rc2NhcGU6em9vbT0iNS45MTg3NzA5IiBvYmplY3R0b2xlcmFuY2U9IjEwIiBwYWdlY29sb3I9IiNmZmZmZmYiIHNob3dncmlkPSJmYWxzZSI+JiN4YTsJPC9zb2RpcG9kaTpuYW1lZHZpZXc+JiN4YTsmI3hhOzxwYXRoIGlkPSJwYXRoNjA5MzMiIGlua3NjYXBlOmNvbm5lY3Rvci1jdXJ2YXR1cmU9IjAiIHN0eWxlPSJmaWxsOiM3YTdhN2EiIGQ9Ik0gMzcuMzksNDIuMTIgSCAzNi4wMSAyMi40MiAyMS43MSBjIDEuODgsNi42NSAtMC42NSw3LjYgLTExLjczLDcuNiB2IDMuNDggaCAxNC4xIDEwLjI5IDEzLjMgdiAtMy40OCBjIC0xMS4wOCwwIC0xMi4xNywtMC45NSAtMTAuMjgsLTcuNiB6Ii8+JiN4YTsmI3hhOzxwYXRoIGlkPSJwYXRoNjA5NDEiIGlua3NjYXBlOmNvbm5lY3Rvci1jdXJ2YXR1cmU9IjAiIHN0eWxlPSJmaWxsOiNhMGExYTIiIGQ9Ik0gNTQuMTYsMCBIIDMuMTMgQyAxLjQsMCAwLDEuNTUgMCwzLjI4IHYgMzUuNTkgYyAwLDEuNzIgMS40LDMuMjUgMy4xMywzLjI1IGggNTEuMDMgYyAxLjczLDAgMy40OCwtMS41MyAzLjQ4LC0zLjI1IFYgMy4yOCBDIDU3LjY0LDEuNTUgNTUuODksMCA1NC4xNiwwIFoiLz4mI3hhOyYjeGE7PHBhdGggaWQ9InBhdGg2MDk0OSIgaW5rc2NhcGU6Y29ubmVjdG9yLWN1cnZhdHVyZT0iMCIgc3R5bGU9ImZpbGw6I2ZmZmZmZjtmaWxsLW9wYWNpdHk6MC4yIiBkPSJNIDU0LjIsMCBDIDU0LjE5LDAgNTQuMTcsMCA1NC4xNiwwIEggMy4xMyBDIDEuNCwwIDAsMS41NSAwLDMuMjggdiAzNS41OSBjIDAsMS43MiAxLjQsMy4yNSAzLjEzLDMuMjUgaCAxLjIyIHoiLz4mI3hhOyYjeGE7PHJlY3QgaWQ9InJlY3Q2MDk1NyIgeD0iNC4zNjk5OTUxIiB5PSI0LjQ0MDAwMDEiIHN0eWxlPSJmaWxsOiM1OWI0ZDkiIHdpZHRoPSI0OC43Nzk5OTkiIGhlaWdodD0iMzMuMjUiLz4mI3hhOyYjeGE7JiN4YTsmI3hhOzxyZWN0IGlkPSJyZWN0NjA5NzMiIHg9IjkuOTc5OTk1NyIgeT0iNDkuNzIwMDAxIiBzdHlsZT0iZmlsbDojYTBhMWEyIiB3aWR0aD0iMzcuNjg5OTk5IiBoZWlnaHQ9IjMuNDgiLz4mI3hhOyYjeGE7PHBhdGggaWQ9InBhdGg2MDk4MSIgaW5rc2NhcGU6Y29ubmVjdG9yLWN1cnZhdHVyZT0iMCIgc3R5bGU9ImZpbGw6I2I4ZDQzMiIgZD0ibSAyOS40MiwyLjQyIGMgMCwwLjQ1IC0wLjM3LDAuODEgLTAuODIsMC44MSAtMC40NiwwIC0wLjgyLC0wLjM2IC0wLjgyLC0wLjgxIDAsLTAuNDYgMC4zNiwtMC44MiAwLjgyLC0wLjgyIDAuNDUsMCAwLjgyLDAuMzYgMC44MiwwLjgyIHoiLz4mI3hhOyYjeGE7PHBhdGggaWQ9InBhdGg2MDk4OSIgaW5rc2NhcGU6Y29ubmVjdG9yLWN1cnZhdHVyZT0iMCIgc3R5bGU9ImZpbGw6I2ZmZmZmZiIgZD0ibSAyOS40NSwyMC4wNSBjIC0wLjA2LDAgLTAuMTEsLTAuMDEgLTAuMTYsLTAuMDQgTCAxOS4xNCwxNC4xNSBjIC0wLjA5LC0wLjA1IC0wLjE1LC0wLjE2IC0wLjE1LC0wLjI2IDAsLTAuMTEgMC4wNiwtMC4yMiAwLjE1LC0wLjI3IEwgMjkuMjMsNy44IGMgMC4xLC0wLjA1IDAuMjEsLTAuMDUgMC4zLDAgbCAxMC4xNiw1Ljg2IGMgMC4wOSwwLjA1IDAuMTUsMC4xNiAwLjE1LDAuMjcgMCwwLjExIC0wLjA2LDAuMjEgLTAuMTUsMC4yNiBMIDI5LjYsMjAuMDEgYyAtMC4wNSwwLjAzIC0wLjEsMC4wNCAtMC4xNSwwLjA0IHoiLz4mI3hhOyYjeGE7PHBhdGggaWQ9InBhdGg2MDk5NyIgaW5rc2NhcGU6Y29ubmVjdG9yLWN1cnZhdHVyZT0iMCIgc3R5bGU9ImZpbGw6I2ZmZmZmZjtmaWxsLW9wYWNpdHk6MC43IiBkPSJtIDI3Ljk5LDM0LjI5IGMgLTAuMDYsMCAtMC4xMSwtMC4wMSAtMC4xNSwtMC4wNCBMIDE3LjcyLDI4LjQxIGMgLTAuMSwtMC4wNSAtMC4xNiwtMC4xNSAtMC4xNiwtMC4yNiBWIDE2LjQzIGMgMCwtMC4xMSAwLjA2LC0wLjIyIDAuMTYsLTAuMjcgMC4wOSwtMC4wNiAwLjIxLC0wLjA2IDAuMzEsMCBMIDI4LjE0LDIyIGMgMC4wOSwwLjA2IDAuMTUsMC4xNiAwLjE1LDAuMjcgdiAxMS43MiBjIDAsMC4xMSAtMC4wNiwwLjIxIC0wLjE1LDAuMjYgLTAuMDUsMC4wMyAtMC4xLDAuMDQgLTAuMTUsMC4wNCB6Ii8+JiN4YTsmI3hhOzxwYXRoIGlkPSJwYXRoNjEwMDUiIGlua3NjYXBlOmNvbm5lY3Rvci1jdXJ2YXR1cmU9IjAiIHN0eWxlPSJmaWxsOiNmZmZmZmY7ZmlsbC1vcGFjaXR5OjAuNCIgZD0iTSAzMC44NiwzNC4yOSBDIDMwLjgsMzQuMjkgMzAuNzUsMzQuMjggMzAuNywzNC4yNSAzMC42MSwzNC4yIDMwLjU1LDM0LjEgMzAuNTUsMzMuOTkgViAyMi4zNCBjIDAsLTAuMTEgMC4wNiwtMC4yMSAwLjE1LC0wLjI3IGwgMTAuMTIsLTUuODMgYyAwLjA5LC0wLjA2IDAuMjEsLTAuMDYgMC4zLDAgMC4xLDAuMDUgMC4xNiwwLjE1IDAuMTYsMC4yNiB2IDExLjY1IGMgMCwwLjExIC0wLjA2LDAuMjEgLTAuMTYsMC4yNiBsIC0xMC4xMSw1Ljg0IGMgLTAuMDQsMC4wMyAtMC4xLDAuMDQgLTAuMTUsMC4wNCB6Ii8+JiN4YTs8L3N2Zz4=;" vertex="1" parent="1">
          <mxGeometry x="310" y="20" width="98.49" height="90" as="geometry" />
        </mxCell>
        <mxCell id="fYd4LuV5suVmh2HfFidL-5" style="edgeStyle=orthogonalEdgeStyle;rounded=0;orthogonalLoop=1;jettySize=auto;html=1;" edge="1" parent="1" source="fYd4LuV5suVmh2HfFidL-6" target="fYd4LuV5suVmh2HfFidL-7">
          <mxGeometry relative="1" as="geometry" />
        </mxCell>
        <mxCell id="fYd4LuV5suVmh2HfFidL-6" value="BankMarketing Dataset" style="shape=image;verticalLabelPosition=bottom;labelBackgroundColor=#ffffff;verticalAlign=top;aspect=fixed;imageAspect=0;image=data:image/svg+xml,PHN2ZyB4bWxuczpjYz0iaHR0cDovL2NyZWF0aXZlY29tbW9ucy5vcmcvbnMjIiB4bWxuczpkYz0iaHR0cDovL3B1cmwub3JnL2RjL2VsZW1lbnRzLzEuMS8iIHhtbG5zOmlua3NjYXBlPSJodHRwOi8vd3d3Lmlua3NjYXBlLm9yZy9uYW1lc3BhY2VzL2lua3NjYXBlIiB4bWxuczpyZGY9Imh0dHA6Ly93d3cudzMub3JnLzE5OTkvMDIvMjItcmRmLXN5bnRheC1ucyMiIHhtbG5zOnNvZGlwb2RpPSJodHRwOi8vc29kaXBvZGkuc291cmNlZm9yZ2UubmV0L0RURC9zb2RpcG9kaS0wLmR0ZCIgeG1sbnM6c3ZnPSJodHRwOi8vd3d3LnczLm9yZy8yMDAwL3N2ZyIgeG1sbnM9Imh0dHA6Ly93d3cudzMub3JnLzIwMDAvc3ZnIiB4bWxuczp4bGluaz0iaHR0cDovL3d3dy53My5vcmcvMTk5OS94bGluayIgdmVyc2lvbj0iMS4xIiBpZD0ic3ZnNDUwMTQiIGlua3NjYXBlOnZlcnNpb249IjAuOTIuMyAoMjQwNTU0NiwgMjAxOC0wMy0xMSkiIHNvZGlwb2RpOmRvY25hbWU9ImNzdl9maWxlLnN2ZyIgeD0iMHB4IiB5PSIwcHgiIHZpZXdCb3g9IjAgMCA5NS4zMyAxMjIuNTYiIHN0eWxlPSJlbmFibGUtYmFja2dyb3VuZDpuZXcgMCAwIDk1LjMzIDEyMi41NjsiIHhtbDpzcGFjZT0icHJlc2VydmUiPiYjeGE7PHNvZGlwb2RpOm5hbWVkdmlldyBib3JkZXJjb2xvcj0iIzY2NjY2NiIgYm9yZGVyb3BhY2l0eT0iMSIgZml0LW1hcmdpbi1ib3R0b209IjAiIGZpdC1tYXJnaW4tbGVmdD0iMCIgZml0LW1hcmdpbi1yaWdodD0iMCIgZml0LW1hcmdpbi10b3A9IjAiIGdyaWR0b2xlcmFuY2U9IjEwIiBndWlkZXRvbGVyYW5jZT0iMTAiIGlkPSJuYW1lZHZpZXc0NTAxNiIgaW5rc2NhcGU6Y3VycmVudC1sYXllcj0ic3ZnNDUwMTQiIGlua3NjYXBlOmN4PSI2NS40ODMzMTQiIGlua3NjYXBlOmN5PSI2MC43MTUyODkiIGlua3NjYXBlOnBhZ2VvcGFjaXR5PSIwIiBpbmtzY2FwZTpwYWdlc2hhZG93PSIyIiBpbmtzY2FwZTp3aW5kb3ctaGVpZ2h0PSIxMDE3IiBpbmtzY2FwZTp3aW5kb3ctbWF4aW1pemVkPSIxIiBpbmtzY2FwZTp3aW5kb3ctd2lkdGg9IjE5MjAiIGlua3NjYXBlOndpbmRvdy14PSItOCIgaW5rc2NhcGU6d2luZG93LXk9Ii04IiBpbmtzY2FwZTp6b29tPSIzLjAwMTk5NyIgb2JqZWN0dG9sZXJhbmNlPSIxMCIgcGFnZWNvbG9yPSIjZmZmZmZmIiBzaG93Z3JpZD0iZmFsc2UiPiYjeGE7CTwvc29kaXBvZGk6bmFtZWR2aWV3PiYjeGE7PGcgaWQ9Imc0NTAxMiIgdHJhbnNmb3JtPSJ0cmFuc2xhdGUoLTE1LjMsLTE1LjMwMDQ4OCkiPiYjeGE7CTx0aXRsZSBpZD0idGl0bGU0NDkzNiI+UGFnZS0xPC90aXRsZT4mI3hhOwk8ZyBpZD0iZ3JvdXA0MTcwLTEiIHRyYW5zZm9ybT0idHJhbnNsYXRlKDE1LjMsLTE1LjMpIj4mI3hhOwkJPHRpdGxlIGlkPSJ0aXRsZTQ0OTM4Ij5DU1YgRmlsZTwvdGl0bGU+JiN4YTsJCTxnIGlkPSJncm91cDQxNzEtMiI+JiN4YTsJCQk8dGl0bGUgaWQ9InRpdGxlNDQ5NDAiPlNoZWV0LjQxNzE8L3RpdGxlPiYjeGE7CQkJPGcgaWQ9InNoYXBlNDE3Mi0zIiB0cmFuc2Zvcm09InRyYW5zbGF0ZSgxLjcwMjI3LC0xLjcwMjI3KSI+JiN4YTsJCQkJPHRpdGxlIGlkPSJ0aXRsZTQ0OTQyIj5TaGVldC40MTcyPC90aXRsZT4mI3hhOwkJCQk8cGF0aCBpZD0icGF0aDQ0OTQ0IiBpbmtzY2FwZTpjb25uZWN0b3ItY3VydmF0dXJlPSIwIiBzdHlsZT0iZmlsbDojRkZGRkZGOyIgZD0iTTAsMTUzLjE2VjM0aDYyLjI4bDI5LjY0LDI5LjY1djg5LjUxSDB6Ii8+JiN4YTsJCQk8L2c+JiN4YTsJCQk8ZyBpZD0ic2hhcGU0MTczLTUiPiYjeGE7CQkJCTx0aXRsZSBpZD0idGl0bGU0NDk0NyI+U2hlZXQuNDE3MzwvdGl0bGU+JiN4YTsJCQkJPHBhdGggaWQ9InBhdGg0NDk0OSIgaW5rc2NhcGU6Y29ubmVjdG9yLWN1cnZhdHVyZT0iMCIgc3R5bGU9ImZpbGw6Izc4OEI5QzsiIGQ9Ik02My4yOCwzNGwyOC42NCwyOC42NXY4Ny4xMUgzLjRWMzRINjMuMjh6ICAgICAgIE02NC42OSwzMC42SDB2MTIyLjU2aDk1LjMzVjYxLjI0TDY0LjY5LDMwLjZ6Ii8+JiN4YTsJCQk8L2c+JiN4YTsJCTwvZz4mI3hhOwkJPGcgaWQ9Imdyb3VwNDE3NC03IiB0cmFuc2Zvcm09InRyYW5zbGF0ZSg2MS4yODE2LC04OC41MTc4KSI+JiN4YTsJCQk8dGl0bGUgaWQ9InRpdGxlNDQ5NTMiPlNoZWV0LjQxNzQ8L3RpdGxlPiYjeGE7CQkJPGcgaWQ9InNoYXBlNDE3NS04IiB0cmFuc2Zvcm09InRyYW5zbGF0ZSgxLjcwMjI3LC0xLjcwMjI3KSI+JiN4YTsJCQkJPHRpdGxlIGlkPSJ0aXRsZTQ0OTU1Ij5TaGVldC40MTc1PC90aXRsZT4mI3hhOwkJCQk8cGF0aCBpZD0icGF0aDQ0OTU3IiBpbmtzY2FwZTpjb25uZWN0b3ItY3VydmF0dXJlPSIwIiBzdHlsZT0iZmlsbDojRkZGRkZGOyIgZD0iTTAsMTUzLjE2di0zMC42NGgxbDI5LjY0LDI5LjY1djAuOTlIMHoiLz4mI3hhOwkJCTwvZz4mI3hhOwkJCTxnIGlkPSJzaGFwZTQxNzYtMTAiPiYjeGE7CQkJCTx0aXRsZSBpZD0idGl0bGU0NDk2MCI+U2hlZXQuNDE3NjwvdGl0bGU+JiN4YTsJCQkJPHBhdGggaWQ9InBhdGg0NDk2MiIgaW5rc2NhcGU6Y29ubmVjdG9yLWN1cnZhdHVyZT0iMCIgc3R5bGU9ImZpbGw6Izc4OEI5QzsiIGQ9Ik0zLjQsMTIzLjkzbDI1LjgzLDI1LjgzSDMuNFYxMjMuOTN6ICAgICAgIE0zLjQsMTE5LjEySDB2MzQuMDRoMzQuMDV2LTMuNEwzLjQsMTE5LjEyeiIvPiYjeGE7CQkJPC9nPiYjeGE7CQk8L2c+JiN4YTsJCTxnIGlkPSJzaGFwZTQxNzctMTIiIHRyYW5zZm9ybT0idHJhbnNsYXRlKDEzLjYxODEsLTk4LjczMTQpIj4mI3hhOwkJCTx0aXRsZSBpZD0idGl0bGU0NDk2NiI+U2hlZXQuNDE3NzwvdGl0bGU+JiN4YTsJCQk8cGF0aCBpZD0icGF0aDQ0OTY4IiBpbmtzY2FwZTpjb25uZWN0b3ItY3VydmF0dXJlPSIwIiBzdHlsZT0iZmlsbDojQkFFMEJEOyIgZD0iTTAsMTUzLjE2aDEzLjYydi0zLjRIMFYxNTMuMTZ6IE0yMy44MywxNDkuNzYgICAgIHYzLjRoMjAuNDN2LTMuNEgyMy44M3oiLz4mI3hhOwkJPC9nPiYjeGE7CQk8ZyBpZD0ic2hhcGU0MTc4LTE0IiB0cmFuc2Zvcm09InRyYW5zbGF0ZSgxMy42MTgxLC05MS45MjI0KSI+JiN4YTsJCQk8dGl0bGUgaWQ9InRpdGxlNDQ5NzEiPlNoZWV0LjQxNzg8L3RpdGxlPiYjeGE7CQkJPHBhdGggaWQ9InBhdGg0NDk3MyIgaW5rc2NhcGU6Y29ubmVjdG9yLWN1cnZhdHVyZT0iMCIgc3R5bGU9ImZpbGw6I0JBRTBCRDsiIGQ9Ik0wLDE1My4xNmgxMy42MnYtMy40SDBWMTUzLjE2eiBNMjMuODMsMTQ5Ljc2ICAgICB2My40aDIwLjQzdi0zLjRIMjMuODN6Ii8+JiN4YTsJCTwvZz4mI3hhOwkJPGcgaWQ9InNoYXBlNDE3OS0xNiIgdHJhbnNmb3JtPSJ0cmFuc2xhdGUoMTMuNjE4MSwtODUuMTEzMykiPiYjeGE7CQkJPHRpdGxlIGlkPSJ0aXRsZTQ0OTc2Ij5TaGVldC40MTc5PC90aXRsZT4mI3hhOwkJCTxwYXRoIGlkPSJwYXRoNDQ5NzgiIGlua3NjYXBlOmNvbm5lY3Rvci1jdXJ2YXR1cmU9IjAiIHN0eWxlPSJmaWxsOiNCQUUwQkQ7IiBkPSJNMCwxNTMuMTZoMTMuNjJ2LTMuNEgwVjE1My4xNnogTTU0LjQ3LDE0OS43NiAgICAgdjMuNGgxMy42MnYtMy40SDU0LjQ3eiBNMjMuODMsMTUzLjE2aDIwLjQzdi0zLjRIMjMuODNMMjMuODMsMTUzLjE2eiIvPiYjeGE7CQk8L2c+JiN4YTsJCTxnIGlkPSJzaGFwZTQxODAtMTgiIHRyYW5zZm9ybT0idHJhbnNsYXRlKDEzLjYxODEsLTI3LjIzNjMpIj4mI3hhOwkJCTx0aXRsZSBpZD0idGl0bGU0NDk4MSI+U2hlZXQuNDE4MDwvdGl0bGU+JiN4YTsJCQk8cGF0aCBpZD0icGF0aDQ0OTgzIiBpbmtzY2FwZTpjb25uZWN0b3ItY3VydmF0dXJlPSIwIiBzdHlsZT0iZmlsbDojQkFFMEJEOyIgZD0iTTAsMTUzLjE2aDEzLjYydi0zLjRIMFYxNTMuMTZ6IE01NC40NywxNDkuNzYgICAgIHYzLjRoMTMuNjJ2LTMuNEg1NC40N3ogTTIzLjgzLDE1My4xNmgyMC40M3YtMy40SDIzLjgzTDIzLjgzLDE1My4xNnoiLz4mI3hhOwkJPC9nPiYjeGE7CQk8ZyBpZD0ic2hhcGU0MTgxLTIwIiB0cmFuc2Zvcm09InRyYW5zbGF0ZSgxMy42MTgxLC0yMC40MjcyKSI+JiN4YTsJCQk8dGl0bGUgaWQ9InRpdGxlNDQ5ODYiPlNoZWV0LjQxODE8L3RpdGxlPiYjeGE7CQkJPHBhdGggaWQ9InBhdGg0NDk4OCIgaW5rc2NhcGU6Y29ubmVjdG9yLWN1cnZhdHVyZT0iMCIgc3R5bGU9ImZpbGw6I0JBRTBCRDsiIGQ9Ik0wLDE1My4xNmgxMy42MnYtMy40SDBWMTUzLjE2eiBNNTQuNDcsMTQ5Ljc2ICAgICB2My40aDEzLjYydi0zLjRINTQuNDd6IE0yMy44MywxNTMuMTZoMjAuNDN2LTMuNEgyMy44M0wyMy44MywxNTMuMTZ6Ii8+JiN4YTsJCTwvZz4mI3hhOwkJPGcgaWQ9InNoYXBlNDE4Mi0yMiIgdHJhbnNmb3JtPSJ0cmFuc2xhdGUoMTMuNjE4MSwtMTMuNjE4MSkiPiYjeGE7CQkJPHRpdGxlIGlkPSJ0aXRsZTQ0OTkxIj5TaGVldC40MTgyPC90aXRsZT4mI3hhOwkJCTxwYXRoIGlkPSJwYXRoNDQ5OTMiIGlua3NjYXBlOmNvbm5lY3Rvci1jdXJ2YXR1cmU9IjAiIHN0eWxlPSJmaWxsOiNCQUUwQkQ7IiBkPSJNMCwxNTMuMTZoMTMuNjJ2LTMuNEgwVjE1My4xNnogTTU0LjQ3LDE0OS43NiAgICAgdjMuNGgxMy42MnYtMy40SDU0LjQ3eiBNMjMuODMsMTUzLjE2aDIwLjQzdi0zLjRIMjMuODNMMjMuODMsMTUzLjE2eiIvPiYjeGE7CQk8L2c+JiN4YTsJCTxnIGlkPSJzaGFwZTQxODMtMjQiIHRyYW5zZm9ybT0idHJhbnNsYXRlKDAsLTM0LjA0NTMpIj4mI3hhOwkJCTx0aXRsZSBpZD0idGl0bGU0NDk5NiI+U2hlZXQuNDE4MzwvdGl0bGU+JiN4YTsJCQk8cmVjdCBpZD0icmVjdDQ0OTk4IiB5PSIxMDUuNSIgc3R5bGU9ImZpbGw6IzVFOUM3NjsiIHdpZHRoPSI5NS4zMyIgaGVpZ2h0PSI0Ny42NiIvPiYjeGE7CQk8L2c+JiN4YTsJCTxnIGlkPSJzaGFwZTQxODQtMjYiIHRyYW5zZm9ybT0idHJhbnNsYXRlKDEwLjAwNTksLTQxLjE5MTQpIj4mI3hhOwkJCTx0aXRsZSBpZD0idGl0bGU0NTAwMSI+U2hlZXQuNDE4NDwvdGl0bGU+JiN4YTsJCQk8cGF0aCBpZD0icGF0aDQ1MDAzIiBpbmtzY2FwZTpjb25uZWN0b3ItY3VydmF0dXJlPSIwIiBzdHlsZT0iZmlsbDojRkZGRkZGOyIgZD0iTTE5LjgyLDEyNy42M3YxLjg0SDEzLjd2LTEuNTYgICAgIGMwLTIuODMtMi42My0zLjQxLTMuNzktMy40MWMtMS41MiwwLTMuNzgsMC4zNi0zLjc4LDMuODJ2MTYuNzdjMCwwLjk2LDAuMDMsMy4zNywzLjcyLDMuMzdjMy40OCwwLDMuODUtMi42NywzLjg1LTMuMzF2LTEuNjIgICAgIGg2LjEydjIuMDNjMCwyLjctMi43MSw3LjYtOS43Myw3LjZjLTEuMTYsMC0xMC4wOS0wLjEyLTEwLjA5LTcuNzR2LTE4LjA3YzAtMy4zNSwyLjg2LTcuNTUsOS45Ny03LjU1ICAgICBDMTguNjIsMTE5LjgsMTkuODIsMTI1LjgsMTkuODIsMTI3LjYzeiBNMzkuOTYsMTE5LjhjLTEwLjIsMC0xMC41MSw3Ljc1LTEwLjUxLDguOThjMCw2LjM3LDQuMDIsNy42MSw2LjY3LDguNDRsNC4zOCwxLjM4ICAgICBjMi43MywwLjk2LDMuNTQsMS4xNCwzLjU0LDQuOTdjMCwzLjk3LTEuMTUsNC44OC00LjQ0LDQuODhjLTMuNTEsMC00LjMzLTEuOTQtNC4zMy0zLjM2di0xLjQ3aC02LjEydjEuNzUgICAgIGMwLDUuNjksNi40OCw3Ljc4LDEwLjQ1LDcuNzhjOC4yMiwwLDEwLjU3LTQuNSwxMC41Ny05LjYzYzAtNi41OS0yLjg3LTcuNzktNi40My04Ljk4bC00LjY4LTEuNDNjLTMuNTUtMS4wOC0zLjMzLTIuMy0zLjM5LTIuNzQgICAgIGMtMC4wNi0wLjQ1LTAuMDktMC45OS0wLjA5LTEuNjRjMC00LjI4LDMuMy00LjI0LDQuMTQtNC4yNGMzLjgxLDAsNC4zMiwyLjg5LDQuMzIsMy45N3YxLjA1aDYuMTN2LTIuMjkgICAgIEM1MC4xNywxMjQuNzMsNDcuNDcsMTE5LjgsMzkuOTYsMTE5LjhMMzkuOTYsMTE5Ljh6IE03MS43MiwxMjAuMDdsLTQuOTMsMjIuOTFoLTAuMTJsLTQuODYtMjIuOTFoLTYuNDlsOC43MSwzMi44MWg1LjQxICAgICBsOC43Ni0zMi44MUg3MS43MnoiLz4mI3hhOwkJPC9nPiYjeGE7CQk8ZyBpZD0ic2hhcGU0MTg1LTI4IiB0cmFuc2Zvcm09InRyYW5zbGF0ZSg4MS43MDg4KSI+JiN4YTsJCQk8dGl0bGUgaWQ9InRpdGxlNDUwMDYiPlNoZWV0LjQxODU8L3RpdGxlPiYjeGE7CQkJPHBhdGggaWQ9InBhdGg0NTAwOCIgaW5rc2NhcGU6Y29ubmVjdG9yLWN1cnZhdHVyZT0iMCIgc3R5bGU9ImZpbGw6Izc4OEI5QzsiIGQ9Ik0xMC4yMSwxMTguOTR2MzEuMTFIMHYzLjExaDEzLjYydi0zNC4yMkgxMC4yMXogICAgICIvPiYjeGE7CQk8L2c+JiN4YTsJPC9nPiYjeGE7PC9nPiYjeGE7PC9zdmc+;" vertex="1" parent="1">
          <mxGeometry x="90.00000000000003" y="280" width="46.34" height="60" as="geometry" />
        </mxCell>
        <mxCell id="fYd4LuV5suVmh2HfFidL-16" style="edgeStyle=orthogonalEdgeStyle;rounded=0;orthogonalLoop=1;jettySize=auto;html=1;" edge="1" parent="1" source="fYd4LuV5suVmh2HfFidL-8" target="fYd4LuV5suVmh2HfFidL-14">
          <mxGeometry relative="1" as="geometry" />
        </mxCell>
        <mxCell id="fYd4LuV5suVmh2HfFidL-8" value="scikit-learn train_test_split" style="shape=image;verticalLabelPosition=bottom;labelBackgroundColor=#ffffff;verticalAlign=top;aspect=fixed;imageAspect=0;image=data:image/svg+xml,PHN2ZyB4bWxuczpkYz0iaHR0cDovL3B1cmwub3JnL2RjL2VsZW1lbnRzLzEuMS8iIHhtbG5zOmNjPSJodHRwOi8vY3JlYXRpdmVjb21tb25zLm9yZy9ucyMiIHhtbG5zOnJkZj0iaHR0cDovL3d3dy53My5vcmcvMTk5OS8wMi8yMi1yZGYtc3ludGF4LW5zIyIgeG1sbnM6c3ZnPSJodHRwOi8vd3d3LnczLm9yZy8yMDAwL3N2ZyIgeG1sbnM9Imh0dHA6Ly93d3cudzMub3JnLzIwMDAvc3ZnIiB4bWxuczpzb2RpcG9kaT0iaHR0cDovL3NvZGlwb2RpLnNvdXJjZWZvcmdlLm5ldC9EVEQvc29kaXBvZGktMC5kdGQiIHhtbG5zOmlua3NjYXBlPSJodHRwOi8vd3d3Lmlua3NjYXBlLm9yZy9uYW1lc3BhY2VzL2lua3NjYXBlIiB2ZXJzaW9uPSIxLjEiIGlkPSJzdmc4MzIzNyIgaW5rc2NhcGU6dmVyc2lvbj0iMC45Mi4zICgyNDA1NTQ2LCAyMDE4LTAzLTExKSIgc29kaXBvZGk6ZG9jbmFtZT0ibWFjaGluZV9sZWFybmluZy5zdmciIHg9IjBweCIgeT0iMHB4IiB2aWV3Qm94PSIwIDAgODEuMDI2MDEgODIuNjUiIHhtbDpzcGFjZT0icHJlc2VydmUiIHdpZHRoPSI4MS4wMjYwMDkiIGhlaWdodD0iODIuNjUwMDAyIj48bWV0YWRhdGEgaWQ9Im1ldGFkYXRhMjQ4NiI+PHJkZjpSREY+PGNjOldvcmsgcmRmOmFib3V0PSIiPjxkYzpmb3JtYXQ+aW1hZ2Uvc3ZnK3htbDwvZGM6Zm9ybWF0PjxkYzp0eXBlIHJkZjpyZXNvdXJjZT0iaHR0cDovL3B1cmwub3JnL2RjL2RjbWl0eXBlL1N0aWxsSW1hZ2UiLz48ZGM6dGl0bGUvPjwvY2M6V29yaz48L3JkZjpSREY+PC9tZXRhZGF0YT48ZGVmcyBpZD0iZGVmczI0ODQiPiYjeGE7CSYjeGE7JiN4YTsJJiN4YTsmI3hhOwkmI3hhOyYjeGE7CSYjeGE7JiN4YTsJJiN4YTsmI3hhOwkJJiN4YTsJJiN4YTsJCSYjeGE7CSYjeGE7CQkmI3hhOwkmI3hhOwkJJiN4YTsJJiN4YTsJCSYjeGE7CTwvZGVmcz4mI3hhOzxmaWx0ZXIgaWQ9ImZpbHRlcl8yIj4mI3hhOwk8ZmVHYXVzc2lhbkJsdXIgaWQ9ImZlR2F1c3NpYW5CbHVyODMxODYiIHN0ZERldmlhdGlvbj0iMiIvPiYjeGE7PC9maWx0ZXI+JiN4YTs8c29kaXBvZGk6bmFtZWR2aWV3IGJvcmRlcmNvbG9yPSIjNjY2NjY2IiBib3JkZXJvcGFjaXR5PSIxIiBmaXQtbWFyZ2luLWJvdHRvbT0iMCIgZml0LW1hcmdpbi1sZWZ0PSIwIiBmaXQtbWFyZ2luLXJpZ2h0PSIwIiBmaXQtbWFyZ2luLXRvcD0iMCIgZ3JpZHRvbGVyYW5jZT0iMTAiIGd1aWRldG9sZXJhbmNlPSIxMCIgaWQ9Im5hbWVkdmlldzgzMjM5IiBpbmtzY2FwZTpjdXJyZW50LWxheWVyPSJzdmc4MzIzNyIgaW5rc2NhcGU6Y3g9Ii0zNi44NDE4NTciIGlua3NjYXBlOmN5PSI0OC45MjU1MjgiIGlua3NjYXBlOnBhZ2VvcGFjaXR5PSIwIiBpbmtzY2FwZTpwYWdlc2hhZG93PSIyIiBpbmtzY2FwZTp3aW5kb3ctaGVpZ2h0PSIxMDE3IiBpbmtzY2FwZTp3aW5kb3ctbWF4aW1pemVkPSIxIiBpbmtzY2FwZTp3aW5kb3ctd2lkdGg9IjE5MjAiIGlua3NjYXBlOndpbmRvdy14PSItOCIgaW5rc2NhcGU6d2luZG93LXk9Ii04IiBpbmtzY2FwZTp6b29tPSI0LjI5MjAyMyIgb2JqZWN0dG9sZXJhbmNlPSIxMCIgcGFnZWNvbG9yPSIjZmZmZmZmIiBzaG93Z3JpZD0iZmFsc2UiPiYjeGE7CTwvc29kaXBvZGk6bmFtZWR2aWV3PiYjeGE7JiN4YTs8cGF0aCBpZD0icGF0aDgzMTk5IiBpbmtzY2FwZTpjb25uZWN0b3ItY3VydmF0dXJlPSIwIiBzdHlsZT0iZmlsbDojNTliNGQ5IiBkPSJtIDc5LjgyMzAwNCw3My43NiAtMjUuNzQsLTQ0LjU3IFYgMTEuMTUgaCAwLjQ3IGMgMy4wOCwwIDUuNTcsLTIuNSA1LjU3LC01LjU4IDAsLTMuMDggLTIuNDksLTUuNTcgLTUuNTcsLTUuNTcgaCAtMjguMDggYyAtMy4wOCwwIC01LjU3LDIuNSAtNS41Nyw1LjU3IDAsMy4wOCAyLjQ5LDUuNTggNS41Nyw1LjU4IGggMC40NyBWIDI5LjE5IEwgMS4yMDMwMDM4LDczLjc2IGMgLTIuODIsNC44OSAtMC41MDk5OTk5Nyw4Ljg5IDUuMTMsOC44OSBIIDc0LjY5MzAwNCBjIDUuNjQsMCA3Ljk1LC00IDUuMTMsLTguODkgeiIvPiYjeGE7JiN4YTs8cGF0aCBpZD0icGF0aDgzMjA3IiBpbmtzY2FwZTpjb25uZWN0b3ItY3VydmF0dXJlPSIwIiBzdHlsZT0iZmlsbDojYjhkNDMyIiBkPSJtIDIyLjQwMzAwNCw1NC41OCAtMTAuNjIsMTguMzkgaCA1Ny40NiBsIC0xMC42MiwtMTguMzkgeiIvPiYjeGE7JiN4YTs8cGF0aCBpZD0icGF0aDgzMjE1IiBpbmtzY2FwZTpjb25uZWN0b3ItY3VydmF0dXJlPSIwIiBzdHlsZT0iZmlsbDojN2ZiYTAwIiBkPSJtIDQxLjg3MzAwNCw2Mi4wNCBjIDIuODcsMCA1LjIsLTIuMzMgNS4yLC01LjE5IDAsLTAuODIgLTAuMiwtMS41OSAtMC41MywtMi4yOCBoIC05LjMzIGMgLTAuMzQsMC42OSAtMC41MywxLjQ2IC0wLjUzLDIuMjggMCwyLjg2IDIuMzMsNS4xOSA1LjE5LDUuMTkgeiIvPiYjeGE7JiN4YTs8Y2lyY2xlIGlkPSJlbGxpcHNlODMyMjMiIHN0eWxlPSJmaWxsOiM3ZmJhMDAiIGN4PSI0OC4zMjMwMDkiIGN5PSI2Ni4wNTAwMDMiIHI9IjIuNTUiLz4mI3hhOyYjeGE7PHBhdGggaWQ9InBhdGg4MzIzMSIgaW5rc2NhcGU6Y29ubmVjdG9yLWN1cnZhdHVyZT0iMCIgc3R5bGU9ImZpbGw6I2ZmZmZmZjtmaWxsLW9wYWNpdHk6MC4yNSIgZD0iTSAxLjIwMzAwMzgsNzMuNzYgMjYuOTQzMDA0LDI5LjE5IFYgMTEuMTUgaCAtMC40NyBjIC0zLjA4LDAgLTUuNTcsLTIuNSAtNS41NywtNS41OCAwLC0zLjA4IDIuNDksLTUuNTcgNS41NywtNS41NyBoIDEyLjEgdiAyOS4wNSBsIC0xMy41Niw1My42IEggNi4zMzMwMDM4IGMgLTUuNjM5OTk5OTcsMCAtNy45NSwtNCAtNS4xMywtOC44OSB6Ii8+JiN4YTs8L3N2Zz4=;" vertex="1" parent="1">
          <mxGeometry x="417.04" y="435" width="71.24" height="73" as="geometry" />
        </mxCell>
        <mxCell id="fYd4LuV5suVmh2HfFidL-10" style="edgeStyle=orthogonalEdgeStyle;rounded=0;orthogonalLoop=1;jettySize=auto;html=1;exitX=1;exitY=0.5;exitDx=0;exitDy=0;entryX=0;entryY=0.5;entryDx=0;entryDy=0;" edge="1" parent="1" source="fYd4LuV5suVmh2HfFidL-11" target="fYd4LuV5suVmh2HfFidL-12">
          <mxGeometry relative="1" as="geometry">
            <mxPoint x="200" y="521.5" as="targetPoint" />
          </mxGeometry>
        </mxCell>
        <mxCell id="fYd4LuV5suVmh2HfFidL-11" value="clean_data()" style="shape=image;html=1;verticalAlign=top;verticalLabelPosition=bottom;labelBackgroundColor=#ffffff;imageAspect=0;aspect=fixed;image=https://cdn4.iconfinder.com/data/icons/logos-and-brands/512/267_Python_logo-128.png" vertex="1" parent="1">
          <mxGeometry x="37.29000000000002" y="461.5" width="71.5" height="71.5" as="geometry" />
        </mxCell>
        <mxCell id="fYd4LuV5suVmh2HfFidL-13" style="edgeStyle=orthogonalEdgeStyle;rounded=0;orthogonalLoop=1;jettySize=auto;html=1;entryX=0.5;entryY=1;entryDx=0;entryDy=0;" edge="1" parent="1" source="fYd4LuV5suVmh2HfFidL-12" target="fYd4LuV5suVmh2HfFidL-7">
          <mxGeometry relative="1" as="geometry" />
        </mxCell>
        <mxCell id="fYd4LuV5suVmh2HfFidL-12" value="train.py Script" style="shape=image;html=1;verticalAlign=top;verticalLabelPosition=bottom;labelBackgroundColor=#ffffff;imageAspect=0;aspect=fixed;image=https://cdn2.iconfinder.com/data/icons/oxygen/128x128/mimetypes/application-x-python.png" vertex="1" parent="1">
          <mxGeometry x="217.11" y="421.5" width="100" height="100" as="geometry" />
        </mxCell>
        <mxCell id="fYd4LuV5suVmh2HfFidL-15" style="edgeStyle=orthogonalEdgeStyle;rounded=0;orthogonalLoop=1;jettySize=auto;html=1;exitX=1;exitY=0.5;exitDx=0;exitDy=0;entryX=0;entryY=0.5;entryDx=0;entryDy=0;" edge="1" parent="1" source="fYd4LuV5suVmh2HfFidL-7" target="fYd4LuV5suVmh2HfFidL-14">
          <mxGeometry relative="1" as="geometry" />
        </mxCell>
        <mxCell id="fYd4LuV5suVmh2HfFidL-7" value="TabularDatasetFactory" style="shape=image;verticalLabelPosition=bottom;labelBackgroundColor=#ffffff;verticalAlign=top;aspect=fixed;imageAspect=0;image=data:image/svg+xml,PHN2ZyB4bWxuczpjYz0iaHR0cDovL2NyZWF0aXZlY29tbW9ucy5vcmcvbnMjIiB4bWxuczpkYz0iaHR0cDovL3B1cmwub3JnL2RjL2VsZW1lbnRzLzEuMS8iIHhtbG5zOmlua3NjYXBlPSJodHRwOi8vd3d3Lmlua3NjYXBlLm9yZy9uYW1lc3BhY2VzL2lua3NjYXBlIiB4bWxuczpyZGY9Imh0dHA6Ly93d3cudzMub3JnLzE5OTkvMDIvMjItcmRmLXN5bnRheC1ucyMiIHhtbG5zOnNvZGlwb2RpPSJodHRwOi8vc29kaXBvZGkuc291cmNlZm9yZ2UubmV0L0RURC9zb2RpcG9kaS0wLmR0ZCIgeG1sbnM6c3ZnPSJodHRwOi8vd3d3LnczLm9yZy8yMDAwL3N2ZyIgeG1sbnM9Imh0dHA6Ly93d3cudzMub3JnLzIwMDAvc3ZnIiB4bWxuczp4bGluaz0iaHR0cDovL3d3dy53My5vcmcvMTk5OS94bGluayIgdmVyc2lvbj0iMS4xIiBpZD0ic3ZnNTUzNjYiIGlua3NjYXBlOnZlcnNpb249IjAuOTIuMyAoMjQwNTU0NiwgMjAxOC0wMy0xMSkiIHNvZGlwb2RpOmRvY25hbWU9ImF6dXJlX2Jsb2Jfc3RvcmFnZS5zdmciIHg9IjBweCIgeT0iMHB4IiB2aWV3Qm94PSIwIDAgNDggNDAuOTkiIHN0eWxlPSJlbmFibGUtYmFja2dyb3VuZDpuZXcgMCAwIDQ4IDQwLjk5OyIgeG1sOnNwYWNlPSJwcmVzZXJ2ZSI+JiN4YTs8c29kaXBvZGk6bmFtZWR2aWV3IGJvcmRlcmNvbG9yPSIjNjY2NjY2IiBib3JkZXJvcGFjaXR5PSIxIiBmaXQtbWFyZ2luLWJvdHRvbT0iMCIgZml0LW1hcmdpbi1sZWZ0PSIwIiBmaXQtbWFyZ2luLXJpZ2h0PSIwIiBmaXQtbWFyZ2luLXRvcD0iMCIgZ3JpZHRvbGVyYW5jZT0iMTAiIGd1aWRldG9sZXJhbmNlPSIxMCIgaWQ9Im5hbWVkdmlldzU1MzY4IiBpbmtzY2FwZTpjdXJyZW50LWxheWVyPSJzdmc1NTM2NiIgaW5rc2NhcGU6Y3g9IjQ5LjQ2MTI0NiIgaW5rc2NhcGU6Y3k9IjIzLjk2Nzc0MiIgaW5rc2NhcGU6cGFnZW9wYWNpdHk9IjAiIGlua3NjYXBlOnBhZ2VzaGFkb3c9IjIiIGlua3NjYXBlOndpbmRvdy1oZWlnaHQ9IjEwMTciIGlua3NjYXBlOndpbmRvdy1tYXhpbWl6ZWQ9IjEiIGlua3NjYXBlOndpbmRvdy13aWR0aD0iMTkyMCIgaW5rc2NhcGU6d2luZG93LXg9Ii04IiBpbmtzY2FwZTp3aW5kb3cteT0iLTgiIGlua3NjYXBlOnpvb209IjEwLjgyMDc2NSIgb2JqZWN0dG9sZXJhbmNlPSIxMCIgcGFnZWNvbG9yPSIjZmZmZmZmIiBzaG93Z3JpZD0iZmFsc2UiPiYjeGE7CTwvc29kaXBvZGk6bmFtZWR2aWV3PiYjeGE7PGcgaWQ9Imc1NTM2NCIgdHJhbnNmb3JtPSJ0cmFuc2xhdGUoLTAuNzUsLTAuNzU0KSI+JiN4YTsJPHRpdGxlIGlkPSJ0aXRsZTU1MzI0Ij5QYWdlLTE8L3RpdGxlPiYjeGE7CTxnIGlkPSJncm91cDUyMTYtMSIgdHJhbnNmb3JtPSJ0cmFuc2xhdGUoMC43NSwtMC43NSkiPiYjeGE7CQk8dGl0bGUgaWQ9InRpdGxlNTUzMjYiPkF6dXJlIEJsb2IgU3RvcmFnZTwvdGl0bGU+JiN4YTsJCTxnIGlkPSJzaGFwZTUyMTctMiI+JiN4YTsJCQk8dGl0bGUgaWQ9InRpdGxlNTUzMjgiPlNoZWV0LjUyMTc8L3RpdGxlPiYjeGE7CQkJPHBhdGggaWQ9InBhdGg1NTMzMCIgaW5rc2NhcGU6Y29ubmVjdG9yLWN1cnZhdHVyZT0iMCIgc3R5bGU9ImZpbGw6I0EwQTFBMjsiIGQ9Ik0wLDQwLjY3YzAsMC45NiwwLjc3LDEuODIsMS43MywxLjgyaDQ0LjQ1ICAgICBjMC45NiwwLDEuODItMC43NywxLjgyLTEuODJWOC44OUgwVjQwLjY3eiIvPiYjeGE7CQk8L2c+JiN4YTsJCTxnIGlkPSJzaGFwZTUyMTgtNCIgdHJhbnNmb3JtPSJ0cmFuc2xhdGUoMCwtMzMuNjk2KSI+JiN4YTsJCQk8dGl0bGUgaWQ9InRpdGxlNTUzMzMiPlNoZWV0LjUyMTg8L3RpdGxlPiYjeGE7CQkJPHBhdGggaWQ9InBhdGg1NTMzNSIgaW5rc2NhcGU6Y29ubmVjdG9yLWN1cnZhdHVyZT0iMCIgc3R5bGU9ImZpbGw6IzdBN0E3QTsiIGQ9Ik00Ni4xOCwzNS4ySDEuNzNDMC43NywzNS4yLDAsMzYuMDYsMCwzNy4wMiAgICAgdjUuNDdoNDh2LTUuNDdDNDgsMzYuMDYsNDcuMjMsMzUuMiw0Ni4xOCwzNS4yeiIvPiYjeGE7CQk8L2c+JiN4YTsJCTxnIGlkPSJzaGFwZTUyMTktNiIgdHJhbnNmb3JtPSJ0cmFuc2xhdGUoMy41NTIsLTE3Ljg1NikiPiYjeGE7CQkJPHRpdGxlIGlkPSJ0aXRsZTU1MzM4Ij5TaGVldC41MjE5PC90aXRsZT4mI3hhOwkJCTxyZWN0IGlkPSJyZWN0NTUzNDAiIHg9IjAiIHk9IjMwLjAxIiBzdHlsZT0iZmlsbDojMDA3MkM2OyIgd2lkdGg9IjE5LjU4IiBoZWlnaHQ9IjEyLjQ4Ii8+JiN4YTsJCTwvZz4mI3hhOwkJPGcgaWQ9InNoYXBlNTIyMC04IiB0cmFuc2Zvcm09InRyYW5zbGF0ZSgzLjU1MiwtMy42NDgpIj4mI3hhOwkJCTx0aXRsZSBpZD0idGl0bGU1NTM0MyI+U2hlZXQuNTIyMDwvdGl0bGU+JiN4YTsJCQk8cmVjdCBpZD0icmVjdDU1MzQ1IiB4PSIwIiB5PSIzMC4wMSIgc3R5bGU9ImZpbGw6IzAwNzJDNjsiIHdpZHRoPSIxOS41OCIgaGVpZ2h0PSIxMi40OCIvPiYjeGE7CQk8L2c+JiN4YTsJCTxnIGlkPSJzaGFwZTUyMjEtMTAiIHRyYW5zZm9ybT0idHJhbnNsYXRlKDI0Ljg2NCwtMTcuODU2KSI+JiN4YTsJCQk8dGl0bGUgaWQ9InRpdGxlNTUzNDgiPlNoZWV0LjUyMjE8L3RpdGxlPiYjeGE7CQkJPHJlY3QgaWQ9InJlY3Q1NTM1MCIgeD0iMCIgeT0iMzAuMDEiIHN0eWxlPSJmaWxsOiNGRkZGRkY7IiB3aWR0aD0iMTkuNDkiIGhlaWdodD0iMTIuNDgiLz4mI3hhOwkJPC9nPiYjeGE7CQk8ZyBpZD0ic2hhcGU1MjIyLTEyIiB0cmFuc2Zvcm09InRyYW5zbGF0ZSgyNC44NjQsLTMuNjQ4KSI+JiN4YTsJCQk8dGl0bGUgaWQ9InRpdGxlNTUzNTMiPlNoZWV0LjUyMjI8L3RpdGxlPiYjeGE7CQkJPHJlY3QgaWQ9InJlY3Q1NTM1NSIgeD0iMCIgeT0iMzAuMDEiIHN0eWxlPSJmaWxsOiMwMDcyQzY7IiB3aWR0aD0iMTkuNDkiIGhlaWdodD0iMTIuNDgiLz4mI3hhOwkJPC9nPiYjeGE7CQk8ZyBpZD0ic2hhcGU1MjIzLTE0IiB0cmFuc2Zvcm09InRyYW5zbGF0ZSgwLC0wLjA5NikiPiYjeGE7CQkJPHRpdGxlIGlkPSJ0aXRsZTU1MzU4Ij5TaGVldC41MjIzPC90aXRsZT4mI3hhOwkJCTxwYXRoIGlkPSJwYXRoNTUzNjAiIGlua3NjYXBlOmNvbm5lY3Rvci1jdXJ2YXR1cmU9IjAiIHN0eWxlPSJmaWxsOiNGRkZGRkY7ZmlsbC1vcGFjaXR5OjAuMjsiIGQ9Ik0xLjkyLDEuNiAgICAgQzAuODYsMS42LDAsMi40NiwwLDMuNTJ2N3YzLjE3djI2Ljg4YzAsMS4wNiwwLjg2LDEuOTIsMS45MiwxLjkyaDIuMTFMNDEuODYsMS42SDEuOTJ6Ii8+JiN4YTsJCTwvZz4mI3hhOwk8L2c+JiN4YTs8L2c+JiN4YTs8L3N2Zz4=;" vertex="1" parent="1">
          <mxGeometry x="237.55000000000004" y="284.75" width="59.12" height="50.5" as="geometry" />
        </mxCell>
        <mxCell id="fYd4LuV5suVmh2HfFidL-18" style="edgeStyle=orthogonalEdgeStyle;rounded=0;orthogonalLoop=1;jettySize=auto;html=1;entryX=0;entryY=0.5;entryDx=0;entryDy=0;" edge="1" parent="1" source="fYd4LuV5suVmh2HfFidL-14" target="fYd4LuV5suVmh2HfFidL-17">
          <mxGeometry relative="1" as="geometry" />
        </mxCell>
        <mxCell id="fYd4LuV5suVmh2HfFidL-14" value="pandas DataFrame" style="shape=image;verticalLabelPosition=bottom;labelBackgroundColor=#ffffff;verticalAlign=top;aspect=fixed;imageAspect=0;image=data:image/svg+xml,PHN2ZyB4bWxuczpkYz0iaHR0cDovL3B1cmwub3JnL2RjL2VsZW1lbnRzLzEuMS8iIHhtbG5zOmNjPSJodHRwOi8vY3JlYXRpdmVjb21tb25zLm9yZy9ucyMiIHhtbG5zOnJkZj0iaHR0cDovL3d3dy53My5vcmcvMTk5OS8wMi8yMi1yZGYtc3ludGF4LW5zIyIgeG1sbnM6c3ZnPSJodHRwOi8vd3d3LnczLm9yZy8yMDAwL3N2ZyIgeG1sbnM9Imh0dHA6Ly93d3cudzMub3JnLzIwMDAvc3ZnIiB4bWxuczpzb2RpcG9kaT0iaHR0cDovL3NvZGlwb2RpLnNvdXJjZWZvcmdlLm5ldC9EVEQvc29kaXBvZGktMC5kdGQiIHhtbG5zOmlua3NjYXBlPSJodHRwOi8vd3d3Lmlua3NjYXBlLm9yZy9uYW1lc3BhY2VzL2lua3NjYXBlIiB2ZXJzaW9uPSIxLjEiIGlkPSJzdmc2NDIwMiIgaW5rc2NhcGU6dmVyc2lvbj0iMC45Mi4zICgyNDA1NTQ2LCAyMDE4LTAzLTExKSIgc29kaXBvZGk6ZG9jbmFtZT0iYXp1cmVfc3RvcmFnZV9henVyZV9maWxlcy5zdmciIHg9IjBweCIgeT0iMHB4IiB2aWV3Qm94PSIwIDAgNzUuNTIgNjQuMzQiIHhtbDpzcGFjZT0icHJlc2VydmUiIHdpZHRoPSI3NS41MTk5OTciIGhlaWdodD0iNjQuMzM5OTk2Ij48bWV0YWRhdGEgaWQ9Im1ldGFkYXRhMTg3OTUiPjxyZGY6UkRGPjxjYzpXb3JrIHJkZjphYm91dD0iIj48ZGM6Zm9ybWF0PmltYWdlL3N2Zyt4bWw8L2RjOmZvcm1hdD48ZGM6dHlwZSByZGY6cmVzb3VyY2U9Imh0dHA6Ly9wdXJsLm9yZy9kYy9kY21pdHlwZS9TdGlsbEltYWdlIi8+PGRjOnRpdGxlLz48L2NjOldvcms+PC9yZGY6UkRGPjwvbWV0YWRhdGE+PGRlZnMgaWQ9ImRlZnMxODc5MyIvPiYjeGE7PGZpbHRlciBpZD0iZmlsdGVyXzIiPiYjeGE7CTxmZUdhdXNzaWFuQmx1ciBpZD0iZmVHYXVzc2lhbkJsdXI2NDA5NSIgc3RkRGV2aWF0aW9uPSIyIi8+JiN4YTs8L2ZpbHRlcj4mI3hhOzxzb2RpcG9kaTpuYW1lZHZpZXcgYm9yZGVyY29sb3I9IiM2NjY2NjYiIGJvcmRlcm9wYWNpdHk9IjEiIGZpdC1tYXJnaW4tYm90dG9tPSIwIiBmaXQtbWFyZ2luLWxlZnQ9IjAiIGZpdC1tYXJnaW4tcmlnaHQ9IjAiIGZpdC1tYXJnaW4tdG9wPSIwIiBncmlkdG9sZXJhbmNlPSIxMCIgZ3VpZGV0b2xlcmFuY2U9IjEwIiBpZD0ibmFtZWR2aWV3NjQyMDQiIGlua3NjYXBlOmN1cnJlbnQtbGF5ZXI9InN2ZzY0MjAyIiBpbmtzY2FwZTpjeD0iLTQwLjc1NzY0MiIgaW5rc2NhcGU6Y3k9IjE0LjI0NTcwNSIgaW5rc2NhcGU6cGFnZW9wYWNpdHk9IjAiIGlua3NjYXBlOnBhZ2VzaGFkb3c9IjIiIGlua3NjYXBlOndpbmRvdy1oZWlnaHQ9IjEwMTciIGlua3NjYXBlOndpbmRvdy1tYXhpbWl6ZWQ9IjEiIGlua3NjYXBlOndpbmRvdy13aWR0aD0iMTkyMCIgaW5rc2NhcGU6d2luZG93LXg9Ii04IiBpbmtzY2FwZTp3aW5kb3cteT0iLTgiIGlua3NjYXBlOnpvb209IjMuNjYwMjg4NyIgb2JqZWN0dG9sZXJhbmNlPSIxMCIgcGFnZWNvbG9yPSIjZmZmZmZmIiBzaG93Z3JpZD0iZmFsc2UiPiYjeGE7CTwvc29kaXBvZGk6bmFtZWR2aWV3PiYjeGE7JiN4YTs8cGF0aCBpZD0icGF0aDY0MTA4IiBpbmtzY2FwZTpjb25uZWN0b3ItY3VydmF0dXJlPSIwIiBzdHlsZT0iZmlsbDojYTBhMWEyIiBkPSJtIDAsNjEuNDggYyAwLDEuNTEgMS4wNiwyLjg2IDIuODcsMi44NiBoIDY5Ljc4IGMgMS41MSwwIDIuODcsLTEuMDUgMi44NywtMi44NiB2IC01MCBIIDAgWiIvPiYjeGE7JiN4YTs8cGF0aCBpZD0icGF0aDY0MTE2IiBpbmtzY2FwZTpjb25uZWN0b3ItY3VydmF0dXJlPSIwIiBzdHlsZT0iZmlsbDojN2E3YTdhIiBkPSJNIDcyLjY1LDAgSCAyLjg3IEMgMS4wNiwwIDAsMS4zNSAwLDIuODcgdiA4LjYgSCA3NS41MiBWIDIuODcgQyA3NS41MiwxLjM1IDc0LjQ2LDAgNzIuNjUsMCBaIi8+JiN4YTsmI3hhOzxyZWN0IGlkPSJyZWN0NjQxMjQiIHg9IjI4LjM5OTk5NCIgeT0iMTYuNDU5OTk5IiBzdHlsZT0iZmlsbDojZmZmZmZmIiB3aWR0aD0iMTkuMDMwMDAxIiBoZWlnaHQ9IjExLjQ4Ii8+JiN4YTsmI3hhOzxyZWN0IGlkPSJyZWN0NjQxMzIiIHg9IjI4LjM5OTk5NCIgeT0iMzIuMDIiIHN0eWxlPSJmaWxsOiNmY2QxMTYiIHdpZHRoPSIxOS4wMzAwMDEiIGhlaWdodD0iMTEuNDgiLz4mI3hhOyYjeGE7PHJlY3QgaWQ9InJlY3Q2NDE0MCIgeD0iNTEuMDUwMDAzIiB5PSIzMi4wMiIgc3R5bGU9ImZpbGw6I2ZjZDExNiIgd2lkdGg9IjE5LjAzMDAwMSIgaGVpZ2h0PSIxMS40OCIvPiYjeGE7JiN4YTs8cmVjdCBpZD0icmVjdDY0MTQ4IiB4PSI1MS4wNTAwMDMiIHk9IjE2LjQ1OTk5OSIgc3R5bGU9ImZpbGw6I2ZmZmZmZiIgd2lkdGg9IjE5LjAzMDAwMSIgaGVpZ2h0PSIxMS40OCIvPiYjeGE7JiN4YTs8cmVjdCBpZD0icmVjdDY0MTU2IiB4PSI1LjczOTk5NzkiIHk9IjE2LjQ1OTk5OSIgc3R5bGU9ImZpbGw6I2ZmZmZmZiIgd2lkdGg9IjE5LjAzMDAwMSIgaGVpZ2h0PSIxMS40OCIvPiYjeGE7JiN4YTs8cmVjdCBpZD0icmVjdDY0MTY0IiB4PSI1LjczOTk5NzkiIHk9IjMyLjAyIiBzdHlsZT0iZmlsbDojZmZmZmZmIiB3aWR0aD0iMTkuMDMwMDAxIiBoZWlnaHQ9IjExLjQ4Ii8+JiN4YTsmI3hhOzxyZWN0IGlkPSJyZWN0NjQxNzIiIHg9IjUuNzM5OTk3OSIgeT0iNDcuNDMiIHN0eWxlPSJmaWxsOiNmY2QxMTYiIHdpZHRoPSIxOS4wMzAwMDEiIGhlaWdodD0iMTEuNDgiLz4mI3hhOyYjeGE7PHJlY3QgaWQ9InJlY3Q2NDE4MCIgeD0iMjguMzk5OTk0IiB5PSI0Ny40MyIgc3R5bGU9ImZpbGw6I2ZjZDExNiIgd2lkdGg9IjE5LjAzMDAwMSIgaGVpZ2h0PSIxMS40OCIvPiYjeGE7JiN4YTs8cmVjdCBpZD0icmVjdDY0MTg4IiB4PSI1MS4wNTAwMDMiIHk9IjQ3LjQzIiBzdHlsZT0iZmlsbDojZmNkMTE2IiB3aWR0aD0iMTkuMDMwMDAxIiBoZWlnaHQ9IjExLjQ4Ii8+JiN4YTsmI3hhOzxwYXRoIGlkPSJwYXRoNjQxOTYiIGlua3NjYXBlOmNvbm5lY3Rvci1jdXJ2YXR1cmU9IjAiIHN0eWxlPSJmaWxsOiNmZmZmZmY7ZmlsbC1vcGFjaXR5OjAuMiIgZD0iTSAyLjg3LDAgQyAxLjUxLDAgMCwxLjM2IDAsMi44NyB2IDExLjE4IDQuOTggNDIuNDUgYyAwLDEuNTEgMS41MSwyLjg2IDIuODcsMi44NiBIIDYuMDQgTCA2NS44NiwwIFoiLz4mI3hhOzwvc3ZnPg==;" vertex="1" parent="1">
          <mxGeometry x="420" y="282.5" width="65.31" height="55" as="geometry" />
        </mxCell>
        <mxCell id="fYd4LuV5suVmh2HfFidL-21" style="edgeStyle=orthogonalEdgeStyle;rounded=0;orthogonalLoop=1;jettySize=auto;html=1;exitX=0.5;exitY=0;exitDx=0;exitDy=0;" edge="1" parent="1" source="fYd4LuV5suVmh2HfFidL-17" target="fYd4LuV5suVmh2HfFidL-19">
          <mxGeometry relative="1" as="geometry" />
        </mxCell>
        <mxCell id="fYd4LuV5suVmh2HfFidL-17" value="AutoML Config" style="shape=image;verticalLabelPosition=bottom;labelBackgroundColor=#ffffff;verticalAlign=top;aspect=fixed;imageAspect=0;image=data:image/svg+xml,PHN2ZyB4bWxuczpjYz0iaHR0cDovL2NyZWF0aXZlY29tbW9ucy5vcmcvbnMjIiB4bWxuczpkYz0iaHR0cDovL3B1cmwub3JnL2RjL2VsZW1lbnRzLzEuMS8iIHhtbG5zOmlua3NjYXBlPSJodHRwOi8vd3d3Lmlua3NjYXBlLm9yZy9uYW1lc3BhY2VzL2lua3NjYXBlIiB4bWxuczpyZGY9Imh0dHA6Ly93d3cudzMub3JnLzE5OTkvMDIvMjItcmRmLXN5bnRheC1ucyMiIHhtbG5zOnNvZGlwb2RpPSJodHRwOi8vc29kaXBvZGkuc291cmNlZm9yZ2UubmV0L0RURC9zb2RpcG9kaS0wLmR0ZCIgeG1sbnM6c3ZnPSJodHRwOi8vd3d3LnczLm9yZy8yMDAwL3N2ZyIgeG1sbnM9Imh0dHA6Ly93d3cudzMub3JnLzIwMDAvc3ZnIiB4bWxuczp4bGluaz0iaHR0cDovL3d3dy53My5vcmcvMTk5OS94bGluayIgdmVyc2lvbj0iMS4xIiBpZD0ic3ZnODM1OTMiIGlua3NjYXBlOnZlcnNpb249IjAuOTIuMyAoMjQwNTU0NiwgMjAxOC0wMy0xMSkiIHNvZGlwb2RpOmRvY25hbWU9Im1hY2hpbmVfbGVhcm5pbmdfMS5zdmciIHg9IjBweCIgeT0iMHB4IiB2aWV3Qm94PSIwIDAgNDUgNDgiIHN0eWxlPSJlbmFibGUtYmFja2dyb3VuZDpuZXcgMCAwIDQ1IDQ4OyIgeG1sOnNwYWNlPSJwcmVzZXJ2ZSI+JiN4YTs8c29kaXBvZGk6bmFtZWR2aWV3IGJvcmRlcmNvbG9yPSIjNjY2NjY2IiBib3JkZXJvcGFjaXR5PSIxIiBmaXQtbWFyZ2luLWJvdHRvbT0iMCIgZml0LW1hcmdpbi1sZWZ0PSIwIiBmaXQtbWFyZ2luLXJpZ2h0PSIwIiBmaXQtbWFyZ2luLXRvcD0iMCIgZ3JpZHRvbGVyYW5jZT0iMTAiIGd1aWRldG9sZXJhbmNlPSIxMCIgaWQ9Im5hbWVkdmlldzgzNTk1IiBpbmtzY2FwZTpjdXJyZW50LWxheWVyPSJzdmc4MzU5MyIgaW5rc2NhcGU6Y3g9IjMzLjMxNzk4NyIgaW5rc2NhcGU6Y3k9IjIzLjQzOTA5MyIgaW5rc2NhcGU6cGFnZW9wYWNpdHk9IjAiIGlua3NjYXBlOnBhZ2VzaGFkb3c9IjIiIGlua3NjYXBlOndpbmRvdy1oZWlnaHQ9IjEwMTciIGlua3NjYXBlOndpbmRvdy1tYXhpbWl6ZWQ9IjEiIGlua3NjYXBlOndpbmRvdy13aWR0aD0iMTkyMCIgaW5rc2NhcGU6d2luZG93LXg9Ii04IiBpbmtzY2FwZTp3aW5kb3cteT0iLTgiIGlua3NjYXBlOnpvb209IjkuMjg4ODExOCIgb2JqZWN0dG9sZXJhbmNlPSIxMCIgcGFnZWNvbG9yPSIjZmZmZmZmIiBzaG93Z3JpZD0iZmFsc2UiPiYjeGE7CTwvc29kaXBvZGk6bmFtZWR2aWV3PiYjeGE7PGcgaWQ9Imc4MzU5MSIgdHJhbnNmb3JtPSJ0cmFuc2xhdGUoLTAuNzUsLTAuNzUwMDAwNjEpIj4mI3hhOwk8dGl0bGUgaWQ9InRpdGxlODM1NjYiPlBhZ2UtMTwvdGl0bGU+JiN4YTsJPGcgaWQ9Imdyb3VwNTA3NS0xIiB0cmFuc2Zvcm09InRyYW5zbGF0ZSgwLjc1LC0wLjc1KSI+JiN4YTsJCTx0aXRsZSBpZD0idGl0bGU4MzU2OCI+TWFjaGluZSBMZWFybmluZyAjMS41MDY8L3RpdGxlPiYjeGE7CQk8ZyBpZD0ic2hhcGU1MDc2LTIiIHRyYW5zZm9ybT0idHJhbnNsYXRlKDE2LjQ3LC0yOS45ODUpIj4mI3hhOwkJCTx0aXRsZSBpZD0idGl0bGU4MzU3MCI+cmVjdDE1MDE1PC90aXRsZT4mI3hhOwkJCSYjeGE7CQkJCTxyYWRpYWxHcmFkaWVudCBpZD0icmVjdDgzNTcyXzFfIiBjeD0iNTUuMDUzOCIgY3k9IjExNy4wNjI3IiByPSI3LjM0MjMiIGdyYWRpZW50VHJhbnNmb3JtPSJtYXRyaXgoMC44MTUxIDAgMCAtMS4yMjY4IC0zOC44OTEzIDE4NC4xMDM5KSIgZ3JhZGllbnRVbml0cz0idXNlclNwYWNlT25Vc2UiPiYjeGE7CQkJCTxzdG9wIG9mZnNldD0iMCIgc3R5bGU9InN0b3AtY29sb3I6IzBFOTBDRiIvPiYjeGE7CQkJCTxzdG9wIG9mZnNldD0iMSIgc3R5bGU9InN0b3AtY29sb3I6IzAwNkRBQSIvPiYjeGE7CQkJPC9yYWRpYWxHcmFkaWVudD4mI3hhOwkJCTxyZWN0IGlkPSJyZWN0ODM1NzIiIHg9IjAiIHk9IjMxLjQ5IiBzdHlsZT0iZmlsbDp1cmwoI3JlY3Q4MzU3Ml8xXyk7IiB3aWR0aD0iMTEuOTciIGhlaWdodD0iMTguMDEiLz4mI3hhOwkJPC9nPiYjeGE7CQk8ZyBpZD0ic2hhcGU1MDc3LTYiPiYjeGE7CQkJPHRpdGxlIGlkPSJ0aXRsZTgzNTc1Ij5wb2x5Z29uMTUwMTc8L3RpdGxlPiYjeGE7CQkJJiN4YTsJCQkJPHJhZGlhbEdyYWRpZW50IGlkPSJwYXRoODM1NzdfMV8iIGN4PSItMTI1LjM3MiIgY3k9Ii0zODAuODY0OSIgcj0iMTEuNjA5MyIgZ3JhZGllbnRUcmFuc2Zvcm09Im1hdHJpeCgxLjkzODEgMCAwIC0wLjUxNiAyNjUuNDg0NCAtMTUzLjAwMzgpIiBncmFkaWVudFVuaXRzPSJ1c2VyU3BhY2VPblVzZSI+JiN4YTsJCQkJPHN0b3Agb2Zmc2V0PSIwIiBzdHlsZT0ic3RvcC1jb2xvcjojMUE0NDdBIi8+JiN4YTsJCQkJPHN0b3Agb2Zmc2V0PSIwLjI3IiBzdHlsZT0ic3RvcC1jb2xvcjojMTYzRTY4Ii8+JiN4YTsJCQkJPHN0b3Agb2Zmc2V0PSIwLjcyIiBzdHlsZT0ic3RvcC1jb2xvcjojMTAzNjUxIi8+JiN4YTsJCQkJPHN0b3Agb2Zmc2V0PSIxIiBzdHlsZT0ic3RvcC1jb2xvcjojMEUzMzQ4Ii8+JiN4YTsJCQk8L3JhZGlhbEdyYWRpZW50PiYjeGE7CQkJPHBhdGggaWQ9InBhdGg4MzU3NyIgaW5rc2NhcGU6Y29ubmVjdG9yLWN1cnZhdHVyZT0iMCIgc3R5bGU9ImZpbGw6dXJsKCNwYXRoODM1NzdfMV8pOyIgZD0iTTAsMzcuNTJoNDVMNDIuMDMsNDkuNUgyLjk3TDAsMzcuNTIgICAgIHoiLz4mI3hhOwkJPC9nPiYjeGE7CQk8ZyBpZD0ic2hhcGU1MDc4LTEwIj4mI3hhOwkJCTx0aXRsZSBpZD0idGl0bGU4MzU4MCI+cG9seWdvbjE1MDE5PC90aXRsZT4mI3hhOwkJCSYjeGE7CQkJCTxyYWRpYWxHcmFkaWVudCBpZD0icGF0aDgzNTgyXzFfIiBjeD0iMjEuNzc2MyIgY3k9IjI2Ljk4ODgiIHI9IjE0LjYyNTQiIGdyYWRpZW50VHJhbnNmb3JtPSJtYXRyaXgoMC45NzU0IDAgMCAtMS4wMjUzIC02Ljk3NDYgNjIuMTc1NykiIGdyYWRpZW50VW5pdHM9InVzZXJTcGFjZU9uVXNlIj4mI3hhOwkJCQk8c3RvcCBvZmZzZXQ9IjAiIHN0eWxlPSJzdG9wLWNvbG9yOiM0OUJERUEiLz4mI3hhOwkJCQk8c3RvcCBvZmZzZXQ9IjAuMzYiIHN0eWxlPSJzdG9wLWNvbG9yOiMyRUE0REUiLz4mI3hhOwkJCQk8c3RvcCBvZmZzZXQ9IjAuNzUiIHN0eWxlPSJzdG9wLWNvbG9yOiMxNzhFRDMiLz4mI3hhOwkJCQk8c3RvcCBvZmZzZXQ9IjEiIHN0eWxlPSJzdG9wLWNvbG9yOiMwRTg2Q0YiLz4mI3hhOwkJCTwvcmFkaWFsR3JhZGllbnQ+JiN4YTsJCQk8cGF0aCBpZD0icGF0aDgzNTgyIiBpbmtzY2FwZTpjb25uZWN0b3ItY3VydmF0dXJlPSIwIiBzdHlsZT0iZmlsbDp1cmwoI3BhdGg4MzU4Ml8xXyk7IiBkPSJNMTYuNDcsMTkuNTFoMTIuMDZMMi45Nyw0OS41ICAgICBMMCwzNy41MkwxNi40NywxOS41MXoiLz4mI3hhOwkJPC9nPiYjeGE7CQk8ZyBpZD0ic2hhcGU1MDc5LTE0IiB0cmFuc2Zvcm09InRyYW5zbGF0ZSgyNC4wMykiPiYjeGE7CQkJPHRpdGxlIGlkPSJ0aXRsZTgzNTg1Ij5wb2x5Z29uMTUwMjE8L3RpdGxlPiYjeGE7CQkJJiN4YTsJCQkJPHJhZGlhbEdyYWRpZW50IGlkPSJwYXRoODM1ODdfMV8iIGN4PSIyNi4xMTIiIGN5PSI2My45NTc4IiByPSIxMS45MDE4IiBncmFkaWVudFRyYW5zZm9ybT0ibWF0cml4KDAuODgxIDAgMCAtMS4xMzUxIC0xMi41MTg2IDEwOC41OTAxKSIgZ3JhZGllbnRVbml0cz0idXNlclNwYWNlT25Vc2UiPiYjeGE7CQkJCTxzdG9wIG9mZnNldD0iMCIgc3R5bGU9InN0b3AtY29sb3I6IzBFOTBDRiIvPiYjeGE7CQkJCTxzdG9wIG9mZnNldD0iMSIgc3R5bGU9InN0b3AtY29sb3I6IzAwNkRBQSIvPiYjeGE7CQkJPC9yYWRpYWxHcmFkaWVudD4mI3hhOwkJCTxwYXRoIGlkPSJwYXRoODM1ODciIGlua3NjYXBlOmNvbm5lY3Rvci1jdXJ2YXR1cmU9IjAiIHN0eWxlPSJmaWxsOnVybCgjcGF0aDgzNTg3XzFfKTsiIGQ9Ik03LjQ3LDIyLjQ4bDEzLjUsMTUuMDRMMTgsNDkuNSAgICAgTDAsMzEuNDhMNy40NywyMi40OHoiLz4mI3hhOwkJPC9nPiYjeGE7CTwvZz4mI3hhOzwvZz4mI3hhOzwvc3ZnPg==;" vertex="1" parent="1">
          <mxGeometry x="640" y="283" width="62.81" height="67" as="geometry" />
        </mxCell>
        <mxCell id="fYd4LuV5suVmh2HfFidL-23" style="edgeStyle=orthogonalEdgeStyle;rounded=0;orthogonalLoop=1;jettySize=auto;html=1;entryX=0;entryY=0.5;entryDx=0;entryDy=0;entryPerimeter=0;" edge="1" parent="1" source="fYd4LuV5suVmh2HfFidL-19" target="fYd4LuV5suVmh2HfFidL-22">
          <mxGeometry relative="1" as="geometry" />
        </mxCell>
        <mxCell id="fYd4LuV5suVmh2HfFidL-19" value="Experiment" style="shape=image;verticalLabelPosition=bottom;labelBackgroundColor=#ffffff;verticalAlign=top;aspect=fixed;imageAspect=0;image=data:image/svg+xml,PHN2ZyB4bWxuczpkYz0iaHR0cDovL3B1cmwub3JnL2RjL2VsZW1lbnRzLzEuMS8iIHhtbG5zOmNjPSJodHRwOi8vY3JlYXRpdmVjb21tb25zLm9yZy9ucyMiIHhtbG5zOnJkZj0iaHR0cDovL3d3dy53My5vcmcvMTk5OS8wMi8yMi1yZGYtc3ludGF4LW5zIyIgeG1sbnM6c3ZnPSJodHRwOi8vd3d3LnczLm9yZy8yMDAwL3N2ZyIgeG1sbnM9Imh0dHA6Ly93d3cudzMub3JnLzIwMDAvc3ZnIiB4bWxuczpzb2RpcG9kaT0iaHR0cDovL3NvZGlwb2RpLnNvdXJjZWZvcmdlLm5ldC9EVEQvc29kaXBvZGktMC5kdGQiIHhtbG5zOmlua3NjYXBlPSJodHRwOi8vd3d3Lmlua3NjYXBlLm9yZy9uYW1lc3BhY2VzL2lua3NjYXBlIiB2ZXJzaW9uPSIxLjEiIGlkPSJzdmc4MzIzNyIgaW5rc2NhcGU6dmVyc2lvbj0iMC45Mi4zICgyNDA1NTQ2LCAyMDE4LTAzLTExKSIgc29kaXBvZGk6ZG9jbmFtZT0ibWFjaGluZV9sZWFybmluZy5zdmciIHg9IjBweCIgeT0iMHB4IiB2aWV3Qm94PSIwIDAgODEuMDI2MDEgODIuNjUiIHhtbDpzcGFjZT0icHJlc2VydmUiIHdpZHRoPSI4MS4wMjYwMDkiIGhlaWdodD0iODIuNjUwMDAyIj48bWV0YWRhdGEgaWQ9Im1ldGFkYXRhMjQ4NiI+PHJkZjpSREY+PGNjOldvcmsgcmRmOmFib3V0PSIiPjxkYzpmb3JtYXQ+aW1hZ2Uvc3ZnK3htbDwvZGM6Zm9ybWF0PjxkYzp0eXBlIHJkZjpyZXNvdXJjZT0iaHR0cDovL3B1cmwub3JnL2RjL2RjbWl0eXBlL1N0aWxsSW1hZ2UiLz48ZGM6dGl0bGUvPjwvY2M6V29yaz48L3JkZjpSREY+PC9tZXRhZGF0YT48ZGVmcyBpZD0iZGVmczI0ODQiPiYjeGE7CSYjeGE7JiN4YTsJJiN4YTsmI3hhOwkmI3hhOyYjeGE7CSYjeGE7JiN4YTsJJiN4YTsmI3hhOwkJJiN4YTsJJiN4YTsJCSYjeGE7CSYjeGE7CQkmI3hhOwkmI3hhOwkJJiN4YTsJJiN4YTsJCSYjeGE7CTwvZGVmcz4mI3hhOzxmaWx0ZXIgaWQ9ImZpbHRlcl8yIj4mI3hhOwk8ZmVHYXVzc2lhbkJsdXIgaWQ9ImZlR2F1c3NpYW5CbHVyODMxODYiIHN0ZERldmlhdGlvbj0iMiIvPiYjeGE7PC9maWx0ZXI+JiN4YTs8c29kaXBvZGk6bmFtZWR2aWV3IGJvcmRlcmNvbG9yPSIjNjY2NjY2IiBib3JkZXJvcGFjaXR5PSIxIiBmaXQtbWFyZ2luLWJvdHRvbT0iMCIgZml0LW1hcmdpbi1sZWZ0PSIwIiBmaXQtbWFyZ2luLXJpZ2h0PSIwIiBmaXQtbWFyZ2luLXRvcD0iMCIgZ3JpZHRvbGVyYW5jZT0iMTAiIGd1aWRldG9sZXJhbmNlPSIxMCIgaWQ9Im5hbWVkdmlldzgzMjM5IiBpbmtzY2FwZTpjdXJyZW50LWxheWVyPSJzdmc4MzIzNyIgaW5rc2NhcGU6Y3g9Ii0zNi44NDE4NTciIGlua3NjYXBlOmN5PSI0OC45MjU1MjgiIGlua3NjYXBlOnBhZ2VvcGFjaXR5PSIwIiBpbmtzY2FwZTpwYWdlc2hhZG93PSIyIiBpbmtzY2FwZTp3aW5kb3ctaGVpZ2h0PSIxMDE3IiBpbmtzY2FwZTp3aW5kb3ctbWF4aW1pemVkPSIxIiBpbmtzY2FwZTp3aW5kb3ctd2lkdGg9IjE5MjAiIGlua3NjYXBlOndpbmRvdy14PSItOCIgaW5rc2NhcGU6d2luZG93LXk9Ii04IiBpbmtzY2FwZTp6b29tPSI0LjI5MjAyMyIgb2JqZWN0dG9sZXJhbmNlPSIxMCIgcGFnZWNvbG9yPSIjZmZmZmZmIiBzaG93Z3JpZD0iZmFsc2UiPiYjeGE7CTwvc29kaXBvZGk6bmFtZWR2aWV3PiYjeGE7JiN4YTs8cGF0aCBpZD0icGF0aDgzMTk5IiBpbmtzY2FwZTpjb25uZWN0b3ItY3VydmF0dXJlPSIwIiBzdHlsZT0iZmlsbDojNTliNGQ5IiBkPSJtIDc5LjgyMzAwNCw3My43NiAtMjUuNzQsLTQ0LjU3IFYgMTEuMTUgaCAwLjQ3IGMgMy4wOCwwIDUuNTcsLTIuNSA1LjU3LC01LjU4IDAsLTMuMDggLTIuNDksLTUuNTcgLTUuNTcsLTUuNTcgaCAtMjguMDggYyAtMy4wOCwwIC01LjU3LDIuNSAtNS41Nyw1LjU3IDAsMy4wOCAyLjQ5LDUuNTggNS41Nyw1LjU4IGggMC40NyBWIDI5LjE5IEwgMS4yMDMwMDM4LDczLjc2IGMgLTIuODIsNC44OSAtMC41MDk5OTk5Nyw4Ljg5IDUuMTMsOC44OSBIIDc0LjY5MzAwNCBjIDUuNjQsMCA3Ljk1LC00IDUuMTMsLTguODkgeiIvPiYjeGE7JiN4YTs8cGF0aCBpZD0icGF0aDgzMjA3IiBpbmtzY2FwZTpjb25uZWN0b3ItY3VydmF0dXJlPSIwIiBzdHlsZT0iZmlsbDojYjhkNDMyIiBkPSJtIDIyLjQwMzAwNCw1NC41OCAtMTAuNjIsMTguMzkgaCA1Ny40NiBsIC0xMC42MiwtMTguMzkgeiIvPiYjeGE7JiN4YTs8cGF0aCBpZD0icGF0aDgzMjE1IiBpbmtzY2FwZTpjb25uZWN0b3ItY3VydmF0dXJlPSIwIiBzdHlsZT0iZmlsbDojN2ZiYTAwIiBkPSJtIDQxLjg3MzAwNCw2Mi4wNCBjIDIuODcsMCA1LjIsLTIuMzMgNS4yLC01LjE5IDAsLTAuODIgLTAuMiwtMS41OSAtMC41MywtMi4yOCBoIC05LjMzIGMgLTAuMzQsMC42OSAtMC41MywxLjQ2IC0wLjUzLDIuMjggMCwyLjg2IDIuMzMsNS4xOSA1LjE5LDUuMTkgeiIvPiYjeGE7JiN4YTs8Y2lyY2xlIGlkPSJlbGxpcHNlODMyMjMiIHN0eWxlPSJmaWxsOiM3ZmJhMDAiIGN4PSI0OC4zMjMwMDkiIGN5PSI2Ni4wNTAwMDMiIHI9IjIuNTUiLz4mI3hhOyYjeGE7PHBhdGggaWQ9InBhdGg4MzIzMSIgaW5rc2NhcGU6Y29ubmVjdG9yLWN1cnZhdHVyZT0iMCIgc3R5bGU9ImZpbGw6I2ZmZmZmZjtmaWxsLW9wYWNpdHk6MC4yNSIgZD0iTSAxLjIwMzAwMzgsNzMuNzYgMjYuOTQzMDA0LDI5LjE5IFYgMTEuMTUgaCAtMC40NyBjIC0zLjA4LDAgLTUuNTcsLTIuNSAtNS41NywtNS41OCAwLC0zLjA4IDIuNDksLTUuNTcgNS41NywtNS41NyBoIDEyLjEgdiAyOS4wNSBsIC0xMy41Niw1My42IEggNi4zMzMwMDM4IGMgLTUuNjM5OTk5OTcsMCAtNy45NSwtNCAtNS4xMywtOC44OSB6Ii8+JiN4YTs8L3N2Zz4=;" vertex="1" parent="1">
          <mxGeometry x="631" y="110.00000000000182" width="81" height="83" as="geometry" />
        </mxCell>
        <mxCell id="fYd4LuV5suVmh2HfFidL-22" value="Onnx Model" style="points=[[0,0,0],[0.25,0,0],[0.5,0,0],[0.75,0,0],[1,0,0],[0,1,0],[0.25,1,0],[0.5,1,0],[0.75,1,0],[1,1,0],[0,0.25,0],[0,0.5,0],[0,0.75,0],[1,0.25,0],[1,0.5,0],[1,0.75,0]];outlineConnect=0;fontColor=#232F3E;gradientColor=#4AB29A;gradientDirection=north;fillColor=#116D5B;strokeColor=#ffffff;dashed=0;verticalLabelPosition=bottom;verticalAlign=top;align=center;html=1;fontSize=12;fontStyle=0;aspect=fixed;shape=mxgraph.aws4.resourceIcon;resIcon=mxgraph.aws4.machine_learning;" vertex="1" parent="1">
          <mxGeometry x="860" y="112.5" width="78" height="78" as="geometry" />
        </mxCell>
      </root>
    </mxGraphModel>
  </diagram>
</mxfile>
